<?xml version="1.0" standalone="no"?>
<!DOCTYPE svg PUBLIC "-//W3C//DTD SVG 20010904//EN"
 "http://www.w3.org/TR/2001/REC-SVG-20010904/DTD/svg10.dtd">
<svg version="1.0" xmlns="http://www.w3.org/2000/svg"
 width="224.000000pt" height="224.000000pt" viewBox="0 0 224.000000 224.000000"
 preserveAspectRatio="xMidYMid meet">

<g transform="translate(0.000000,224.000000) scale(0.100000,-0.100000)"
fill="#000000" stroke="none">
<path d="M1214 2135 c-10 -8 -32 -15 -47 -15 -50 0 -69 -17 -65 -57 l3 -35
-71 -18 c-121 -31 -261 -109 -359 -201 l-50 -46 -100 -7 c-55 -4 -145 -16
-200 -27 -117 -24 -311 -85 -321 -101 -5 -8 -1 -9 12 -3 261 110 686 156 827
89 44 -21 61 -52 52 -92 -26 -123 -421 -272 -762 -289 -77 -3 -133 -10 -133
-16 0 -16 253 0 362 23 274 58 502 171 547 271 19 41 31 42 31 1 0 -83 -142
-178 -390 -261 -171 -58 -246 -72 -402 -78 -90 -4 -148 -10 -148 -16 0 -7 47
-8 143 -2 180 9 185 9 228 1 l36 -6 6 -113 c8 -158 55 -303 139 -425 17 -24
28 -45 26 -47 -2 -2 -39 7 -81 20 -116 37 -154 31 -177 -29 -15 -40 -13 -345
3 -376 7 -13 27 -34 44 -46 59 -39 376 -113 603 -139 165 -20 486 -19 636 0
254 34 522 105 577 155 l32 28 3 163 c4 183 -1 222 -29 250 -27 27 -73 24
-178 -10 l-89 -28 31 47 c24 36 46 55 91 76 56 27 60 31 62 68 2 27 -2 43 -13
51 -20 15 -11 31 23 39 14 4 38 14 51 24 31 20 73 106 72 147 -1 24 -3 20 -13
-20 -7 -27 -18 -60 -24 -72 -18 -34 -69 -65 -107 -66 -48 -1 -60 13 -46 55 10
30 9 31 -4 14 -22 -28 -18 -61 8 -79 12 -8 19 -18 14 -23 -10 -11 -63 31 -60
48 2 7 -7 18 -19 23 -21 9 -40 47 -52 106 -4 18 -23 38 -56 59 -54 34 -64 62
-30 80 30 16 67 2 104 -41 25 -30 40 -39 65 -39 26 0 34 5 42 29 6 16 19 31
31 34 18 5 20 2 14 -25 -3 -17 -14 -37 -23 -43 -16 -12 -15 -13 7 -8 16 3 38
-4 62 -21 l37 -25 -11 25 c-14 31 3 92 38 134 14 16 21 30 16 30 -17 0 -51
-50 -64 -94 -15 -51 -13 -49 -36 -42 -19 6 -19 10 -7 57 19 73 47 121 85 146
37 26 33 30 -9 8 -16 -8 -31 -21 -35 -30 -4 -11 -16 -15 -37 -13 -31 3 -33 5
-50 80 -22 93 -63 187 -122 276 -24 37 -47 79 -51 94 -3 15 -24 41 -45 58 -23
19 -41 43 -45 60 -8 43 -74 110 -131 135 -27 13 -58 32 -69 44 -35 39 -174 79
-218 62 -18 -7 -39 -4 -79 10 -66 22 -80 23 -105 4z m123 -25 c28 -12 45 -15
49 -8 20 33 225 -27 238 -70 4 -10 15 -18 27 -19 64 -5 176 -115 150 -147 -10
-11 -8 -16 8 -21 11 -3 36 -24 56 -46 29 -33 34 -43 24 -55 -6 -8 -18 -14 -26
-14 -12 0 -12 -3 1 -22 28 -40 21 -58 -24 -58 -33 0 -135 31 -149 46 -3 2 5
12 18 20 l22 16 -45 28 c-47 30 -66 56 -66 89 0 17 -6 21 -30 21 -68 0 -130
47 -130 98 0 21 -1 22 -16 8 -25 -26 -65 -31 -111 -14 -42 15 -43 15 -43 -6 0
-13 3 -17 8 -9 5 8 13 9 22 3 20 -13 87 -13 110 0 16 8 20 5 30 -25 14 -42 52
-65 110 -65 35 0 40 -3 40 -23 0 -31 23 -61 66 -87 l35 -22 -28 -18 c-33 -20
-59 -57 -77 -107 l-12 -35 -18 28 c-10 16 -28 37 -40 47 -57 48 -184 96 -263
99 -24 1 -43 4 -43 7 0 3 13 40 30 81 16 41 29 80 30 85 0 6 -19 19 -41 30
-56 26 -139 106 -139 132 0 23 31 36 66 27 14 -4 23 0 27 10 9 22 81 20 134
-4z m-143 -147 c39 -26 73 -49 76 -51 4 -3 -39 -135 -51 -153 -3 -6 -29 6 -58
25 -86 58 -162 71 -218 36 -46 -27 -57 -53 -39 -88 8 -16 22 -34 30 -41 14
-12 16 -10 16 8 0 12 12 33 26 48 23 23 31 25 94 21 39 -2 74 -8 80 -14 7 -7
-11 -9 -55 -6 -93 6 -132 -23 -109 -83 6 -14 8 -13 22 6 8 11 30 27 48 35 39
16 110 19 119 4 4 -6 -9 -30 -28 -53 -19 -23 -44 -61 -55 -83 -20 -39 -24 -42
-72 -46 -54 -5 -103 -33 -108 -62 -2 -10 14 -34 38 -57 41 -39 41 -40 13 -34
-15 4 -41 11 -57 16 -60 19 -38 -17 29 -46 26 -12 29 -17 26 -50 -5 -58 16
-94 80 -135 l58 -37 -37 -11 c-82 -24 -258 30 -374 115 -26 19 -52 32 -57 29
-5 -4 -12 3 -16 13 -4 12 -12 18 -21 14 -25 -9 -15 11 24 48 20 20 82 59 138
88 158 81 228 153 205 214 -23 60 -159 127 -259 127 l-46 0 30 31 c44 47 143
115 220 151 65 30 172 66 203 67 8 1 46 -20 85 -46z m178 -253 c35 -11 85 -33
111 -51 l46 -31 -35 -36 c-46 -48 -60 -72 -40 -72 12 0 13 -5 4 -30 -11 -33
-4 -80 12 -80 6 0 10 12 10 28 1 31 16 54 47 71 35 18 63 -16 63 -78 0 -83
-54 -126 -104 -83 -21 17 -21 17 -2 -5 11 -13 27 -23 37 -23 24 0 49 -38 49
-75 0 -49 -49 -86 -138 -106 -29 -6 -59 -20 -73 -35 -27 -29 -57 -30 -109 -4
-22 11 -44 20 -50 20 -21 0 -144 53 -172 73 -35 26 -62 82 -54 113 5 20 12 24
46 24 44 0 49 -6 23 -26 -16 -12 -16 -13 8 -14 52 0 88 -21 113 -64 29 -50
110 -116 142 -116 18 0 25 7 30 28 15 70 61 142 89 142 8 0 23 -10 35 -22 11
-12 20 -16 20 -9 0 23 -48 61 -77 60 -17 -1 -21 -3 -10 -6 26 -7 21 -19 -17
-37 -49 -23 -119 -19 -219 12 -73 23 -86 30 -74 40 11 10 22 9 50 -3 52 -22
132 -19 184 6 24 11 43 25 43 30 0 6 -7 6 -18 0 -29 -15 -119 -25 -126 -13 -3
5 1 12 9 16 24 9 17 35 -10 42 -14 4 -29 3 -33 0 -3 -4 4 -9 16 -13 12 -3 22
-9 22 -13 0 -47 -251 16 -280 70 -22 42 20 70 103 70 57 0 115 -23 163 -63 21
-18 34 -23 45 -16 11 7 11 9 1 9 -8 0 -27 9 -43 20 -28 21 -28 21 -9 40 24 24
34 62 26 95 -7 29 -26 34 -26 6 0 -24 -31 -52 -37 -33 -8 23 -23 1 -23 -33 0
-33 -1 -34 -30 -24 l-29 11 24 48 c36 70 79 110 120 110 24 0 38 -6 45 -20 10
-19 13 -19 33 -5 28 20 91 19 107 -1 18 -20 15 -97 -5 -175 -9 -35 -19 -67
-21 -70 -2 -4 -21 -1 -41 7 -21 7 -47 13 -58 13 -11 0 6 -8 38 -19 32 -10 65
-24 75 -32 15 -11 15 -11 5 3 -10 12 -9 25 2 64 27 87 37 168 26 198 -15 39
-56 52 -104 33 -36 -14 -39 -14 -57 4 -15 15 -28 18 -51 13 -30 -6 -30 -5 -18
16 18 28 83 28 171 1z m-783 -389 c-16 -16 -29 -39 -29 -50 0 -23 -35 -38 -53
-23 -7 6 -43 13 -82 17 l-69 8 94 27 c52 15 106 32 120 38 43 19 49 13 19 -17z
m1546 -48 c-9 -39 -18 -45 -72 -50 -39 -4 -51 -1 -66 15 -33 37 3 60 92 61 53
1 53 1 46 -26z m-1540 -43 c-21 -23 -103 -62 -115 -55 -19 12 -10 22 40 45 28
13 56 30 62 37 9 11 13 11 19 1 5 -7 2 -19 -6 -28z m688 15 c42 0 77 -3 77 -6
0 -25 -84 -43 -139 -31 -19 4 -41 18 -50 31 -15 23 -15 23 9 15 14 -5 60 -9
103 -9z m-793 -15 c0 -5 -9 -14 -19 -19 -15 -8 -18 -20 -17 -52 2 -37 9 -48
58 -93 30 -28 95 -75 144 -105 159 -97 285 -183 291 -197 5 -14 -53 -160 -67
-169 -6 -4 -139 23 -218 45 -31 8 -49 22 -75 58 -101 137 -157 301 -157 460
l0 82 30 0 c17 0 30 -4 30 -10z m206 -29 c71 -47 167 -87 254 -105 63 -13 65
-14 62 -42 l-2 -29 16 30 c20 36 32 45 62 45 16 0 22 -6 23 -22 1 -18 3 -16 8
7 6 25 11 30 35 28 34 -3 32 0 39 -45 5 -33 2 -39 -29 -63 -40 -30 -43 -29
-55 17 -8 29 -8 27 -4 -13 3 -38 0 -50 -16 -65 -30 -27 -58 -87 -66 -139 -8
-59 4 -58 73 7 30 28 56 49 58 47 2 -2 15 -26 30 -54 29 -54 25 -23 -4 35 -18
35 -18 36 7 64 13 15 26 26 29 23 10 -10 6 -156 -6 -261 l-13 -109 -101 8
c-133 9 -191 19 -189 30 1 6 18 47 38 92 21 47 38 104 40 135 2 29 2 44 -2 33
-20 -70 -16 -69 -85 -21 -35 23 -123 78 -196 122 -132 78 -237 163 -230 186 2
6 21 17 41 24 20 7 56 27 80 43 23 17 43 30 43 31 1 0 28 -18 60 -39z m758
-101 c25 -10 46 -22 46 -26 0 -12 -76 -106 -119 -148 l-40 -39 -11 27 c-16 42
-13 48 40 115 28 34 50 67 50 72 0 5 -21 -16 -46 -48 -66 -81 -64 -80 -73 -64
-6 9 9 31 48 72 31 32 57 58 58 59 1 0 22 -9 47 -20z m-214 -15 c7 -8 30 -18
51 -21 l39 -6 -26 -20 c-20 -17 -31 -19 -57 -11 -26 7 -33 14 -35 41 -3 34 8
41 28 17z m312 -21 c3 -3 2 -21 -4 -41 -5 -19 -7 -37 -4 -41 3 -3 9 9 12 27
11 53 18 52 126 -25 83 -59 160 -76 238 -54 32 9 36 8 62 -25 16 -19 47 -44
68 -56 22 -13 40 -26 40 -31 0 -12 -107 -57 -175 -73 -38 -10 -117 -15 -217
-15 l-157 0 -5 43 c-13 95 -14 99 -12 24 3 -67 8 -88 39 -146 l35 -69 -41 -6
c-23 -3 -111 -9 -194 -13 -175 -7 -160 -17 -142 97 5 36 12 85 14 109 4 49 25
82 25 40 0 -14 -5 -30 -12 -37 -6 -6 -9 -15 -5 -18 4 -4 9 0 13 9 5 13 15 7
51 -33 25 -28 51 -50 59 -50 19 0 18 45 -2 125 l-16 65 66 71 c37 40 74 85 84
101 15 26 40 36 54 22z m-333 -96 c-30 -43 -170 -188 -181 -188 -14 0 2 71 26
114 12 23 49 60 86 87 55 41 67 46 79 34 12 -11 10 -18 -10 -47z m89 -22 c31
-77 64 -210 60 -238 -3 -21 -5 -20 -40 15 -43 43 -63 103 -74 216 -6 68 -6 73
12 69 12 -2 27 -24 42 -62z m-64 -33 c4 -31 3 -53 -3 -53 -10 0 -20 77 -13 98
7 19 9 13 16 -45z m848 -35 c14 -5 2 -28 -16 -28 -19 0 -107 80 -101 91 3 5
28 -7 55 -25 27 -19 55 -36 62 -38z m-1591 -212 c449 -145 885 -164 1325 -56
66 17 154 41 194 55 40 14 90 25 111 25 64 0 69 -17 69 -218 0 -100 -4 -181
-10 -193 -14 -25 -56 -46 -154 -75 -464 -141 -940 -147 -1465 -18 -154 38
-214 62 -231 93 -6 12 -10 93 -10 193 0 141 3 178 16 196 20 29 61 29 155 -2z"/>
<path d="M1310 1576 c0 -27 -31 -59 -37 -38 -8 21 -20 13 -26 -15 -13 -67 33
-96 72 -46 28 35 36 69 22 99 -14 31 -31 31 -31 0z"/>
<path d="M1518 1456 c-10 -7 -18 -17 -18 -21 0 -4 7 -2 15 5 21 17 29 -7 15
-46 -9 -27 -9 -28 5 -10 8 11 15 30 15 43 0 14 6 23 16 23 8 0 12 5 9 10 -9
14 -37 12 -57 -4z"/>
<path d="M1142 653 c-13 -25 -4 -43 19 -43 16 0 20 6 17 27 -4 32 -23 41 -36
16z"/>
<path d="M1250 654 c-10 -11 -11 -20 -3 -32 17 -27 38 -20 38 12 0 34 -16 44
-35 20z"/>
<path d="M410 468 l0 -173 60 -17 c32 -10 64 -18 69 -18 6 0 10 18 9 40 -2 49
2 53 36 40 49 -18 85 -12 118 20 27 27 30 36 25 72 -6 44 -28 81 -68 110 -19
14 -229 98 -246 98 -2 0 -3 -78 -3 -172z m175 12 c21 -23 13 -50 -15 -50 -16
0 -20 6 -20 35 0 40 9 44 35 15z"/>
<path d="M1913 567 l-72 -20 -71 -180 c-39 -99 -68 -182 -66 -184 3 -3 33 -1
68 4 58 7 64 10 77 41 12 26 24 35 65 47 65 19 73 19 81 -5 3 -11 10 -20 15
-20 18 0 130 53 130 61 0 19 -135 279 -145 278 -5 -1 -42 -11 -82 -22z m26
-147 c7 -22 10 -44 7 -49 -8 -12 -56 -20 -56 -10 0 19 25 99 30 99 4 0 12 -18
19 -40z"/>
<path d="M776 413 c-4 -70 -8 -148 -9 -172 l-2 -45 64 -13 c35 -7 66 -11 69
-9 4 5 21 239 22 307 0 35 -1 36 -45 42 -25 4 -56 9 -69 13 l-24 6 -6 -129z"/>
<path d="M1526 500 l-150 -15 -12 -49 -13 -48 60 4 c32 2 59 2 59 -1 0 -2 -29
-58 -65 -124 -36 -66 -64 -122 -61 -125 6 -5 280 16 306 24 13 3 46 92 38 99
-2 2 -32 -1 -67 -6 -35 -5 -66 -7 -68 -5 -3 2 25 62 61 132 35 71 64 129 63
129 -1 0 -69 -6 -151 -15z"/>
<path d="M1000 467 c-20 -60 -16 -67 45 -67 30 0 55 -4 55 -8 0 -4 -29 -57
-65 -117 -35 -61 -61 -113 -57 -117 4 -4 77 -10 163 -14 l156 -7 11 46 c7 25
12 48 12 51 0 3 -32 6 -71 6 -83 0 -83 -12 1 136 33 59 59 108 58 109 -2 1
-69 5 -150 7 l-147 5 -11 -30z"/>
<path d="M320 1699 c-94 -17 -110 -22 -116 -30 -3 -5 -15 -9 -27 -9 -13 0 -33
-7 -45 -16 -12 -8 -26 -13 -31 -10 -11 7 -101 -30 -101 -41 0 -5 7 -19 16 -31
14 -20 14 -23 0 -28 -9 -4 -16 -18 -16 -33 0 -21 5 -27 20 -26 25 2 39 15 17
15 -10 0 -17 4 -17 8 0 4 9 8 19 8 11 0 17 -5 15 -11 -3 -5 1 -2 9 8 18 21 74
20 69 -1 -1 -8 2 -11 9 -6 7 4 10 1 7 -7 -3 -9 -21 -14 -54 -14 -39 0 -49 -3
-48 -16 1 -17 -12 -19 -33 -6 -10 6 -13 -2 -13 -32 0 -32 4 -41 18 -42 9 -1
82 0 162 1 116 1 152 5 185 20 22 10 58 21 80 25 76 13 199 56 277 97 59 31
86 52 109 85 25 35 28 47 19 58 -7 8 -20 15 -29 15 -9 0 -22 5 -28 11 -14 14
-406 21 -473 8z m217 -11 c2 6 20 12 39 12 37 0 46 -14 15 -23 -13 -3 -19 -13
-18 -31 1 -14 7 -25 12 -25 24 3 35 -2 44 -18 8 -15 5 -18 -20 -18 -26 0 -27
1 -12 13 9 6 13 13 7 13 -50 6 -76 19 -70 35 3 8 -10 3 -30 -12 -29 -23 -37
-25 -45 -13 -6 10 -9 11 -9 1 0 -7 7 -15 15 -18 8 -4 15 -10 15 -14 0 -9 -70
-21 -81 -15 -12 8 50 67 65 62 18 -7 55 33 49 53 -4 13 -3 13 7 0 9 -11 13
-12 17 -2z m-107 -7 c0 -14 -24 -17 -94 -12 -47 3 -55 6 -36 12 36 10 130 11
130 0z m354 -3 c57 -16 60 -20 36 -61 -22 -37 -49 -55 -51 -34 0 7 -2 24 -4
39 -3 20 0 25 11 21 10 -4 11 -10 3 -24 -5 -11 -6 -19 0 -19 8 0 21 23 21 39
0 12 -48 31 -75 31 -14 0 -25 5 -25 10 0 13 33 13 84 -2z m-493 -29 l24 -21
-25 6 c-14 4 -37 9 -52 12 -16 4 -28 10 -28 15 0 17 58 9 81 -12z m343 -4 c14
-13 26 -31 26 -40 0 -21 -1 -20 -45 25 -43 44 -27 58 19 15z m-259 4 c4 -6 2
-16 -5 -22 -9 -9 -15 -7 -26 7 -15 21 -19 10 -5 -13 5 -8 15 -11 23 -8 8 3 21
1 29 -5 10 -6 3 -8 -23 -6 -24 3 -39 -1 -42 -9 -3 -7 -12 -10 -22 -6 -13 5
-15 3 -9 -7 5 -9 4 -11 -3 -6 -7 4 -12 15 -13 24 0 14 -2 13 -8 -3 -5 -11 -6
-24 -4 -28 3 -5 -3 -5 -13 1 -11 5 -27 8 -36 7 -10 -2 -17 0 -17 3 3 22 -2 32
-13 26 -7 -4 -4 2 6 14 20 23 53 31 40 10 -5 -8 -2 -9 11 -4 11 4 25 0 38 -11
15 -13 21 -15 24 -5 3 6 9 10 14 6 12 -7 12 3 0 25 -8 14 -5 17 19 19 16 1 32
-3 35 -9z m-209 -33 c-39 -37 -48 -76 -18 -76 10 0 24 6 31 13 11 10 12 8 7
-10 -5 -16 -1 -27 13 -40 26 -22 27 -45 2 -60 -16 -10 -18 -9 -14 6 3 11 0 22
-5 25 -6 3 -8 -2 -5 -14 6 -22 -24 -33 -77 -28 -57 5 -49 28 9 28 50 0 51 1
51 29 0 24 -6 31 -31 40 -24 8 -30 15 -25 28 3 10 -3 6 -15 -9 -11 -16 -30
-28 -42 -28 -19 0 -16 6 22 41 26 24 36 39 26 37 -10 -2 -20 3 -22 10 -3 7 5
12 20 12 14 0 38 7 53 15 49 25 58 17 20 -19z m529 24 c-3 -5 -14 -10 -23 -9
-14 0 -13 2 3 9 27 11 27 11 20 0z m-8 -40 c-1 -11 -5 -20 -9 -20 -4 0 -8 9
-8 20 0 11 4 20 9 20 6 0 9 -9 8 -20z m-117 -30 c0 -5 -2 -10 -4 -10 -3 0 -8
5 -11 10 -3 6 -1 10 4 10 6 0 11 -4 11 -10z m-95 -10 c-3 -6 1 -13 9 -16 9 -3
13 -11 10 -16 -4 -6 3 -5 15 1 24 13 29 23 7 15 -8 -3 -17 -1 -21 5 -4 7 5 11
24 11 43 0 45 -13 5 -35 -26 -14 -31 -21 -22 -28 9 -6 7 -7 -6 -3 -11 4 -23 1
-28 -6 -6 -10 -8 -10 -8 0 0 6 -5 12 -11 12 -5 0 -7 -4 -4 -10 4 -6 -1 -7 -11
-3 -12 4 -15 3 -10 -5 4 -7 1 -12 -8 -12 -11 0 -13 6 -6 30 7 23 5 32 -7 38
-14 8 -13 10 1 15 9 4 16 1 16 -6 0 -8 4 -7 10 3 5 8 12 12 15 8 4 -3 -1 -19
-11 -35 l-18 -28 25 25 c14 14 23 31 21 38 -2 6 1 12 8 12 6 0 8 -5 5 -10z
m223 -13 c9 -10 -1 -19 -44 -40 -64 -32 -64 -32 -64 -12 0 8 7 15 15 15 8 0
22 11 32 25 20 27 45 32 61 12z m-380 -9 c-7 -19 -45 -21 -51 -4 -5 12 1 16
24 16 20 0 29 -4 27 -12z m27 -18 c-3 -5 -2 -10 4 -10 5 0 11 6 14 13 2 6 7 9
11 6 4 -4 -3 -17 -15 -28 -21 -19 -24 -20 -32 -5 -6 11 -5 19 4 25 18 11 22
11 14 -1z m45 -36 c-20 -35 -47 -49 -68 -33 -16 12 -16 12 0 -6 16 -17 18 -17
42 -2 14 10 38 17 53 17 16 0 44 4 63 10 20 6 38 6 43 1 11 -11 -8 -17 -91
-30 -34 -5 -72 -17 -84 -25 -32 -23 -86 -21 -84 2 1 18 43 48 62 44 5 -1 23
11 39 28 33 34 45 32 25 -6z m-205 -71 c3 -10 -16 -13 -75 -13 -44 0 -80 4
-80 9 0 20 147 23 155 4z"/>
<path d="M355 1640 c3 -5 8 -10 11 -10 2 0 4 5 4 10 0 6 -5 10 -11 10 -5 0 -7
-4 -4 -10z"/>
<path d="M206 1622 c-8 -13 11 -35 24 -27 7 4 17 1 22 -6 8 -11 9 -10 5 3 -3
9 -1 19 6 22 7 2 -3 2 -22 -1 -24 -4 -32 -3 -27 5 4 7 5 12 2 12 -3 0 -7 -4
-10 -8z"/>
</g>
</svg>
