<?xml version="1.0" standalone="no"?>
<!DOCTYPE svg PUBLIC "-//W3C//DTD SVG 20010904//EN"
 "http://www.w3.org/TR/2001/REC-SVG-20010904/DTD/svg10.dtd">
<svg version="1.0" xmlns="http://www.w3.org/2000/svg"
 width="224.000000pt" height="224.000000pt" viewBox="0 0 224.000000 224.000000"
 preserveAspectRatio="xMidYMid meet">

<g transform="translate(0.000000,224.000000) scale(0.100000,-0.100000)"
fill="#000000" stroke="none">
<path d="M1206 2135 c-8 -8 -30 -15 -50 -15 -19 0 -42 -7 -50 -16 -19 -18 -19
-16 -6 -48 9 -24 7 -26 -33 -36 -161 -41 -278 -104 -397 -215 l-45 -43 -105
-6 c-58 -3 -148 -15 -200 -26 -111 -23 -280 -76 -307 -95 -10 -8 28 1 83 20
323 109 718 122 791 26 97 -127 -345 -329 -764 -348 -72 -4 -123 -10 -123 -16
0 -16 243 -1 360 23 273 55 504 169 549 271 19 41 31 42 31 1 0 -88 -139 -178
-411 -267 -168 -55 -280 -75 -420 -75 -66 0 -109 -4 -109 -10 0 -12 183 -12
255 0 30 5 71 4 102 -2 l53 -11 0 -87 c0 -149 54 -320 142 -448 17 -24 28 -45
26 -48 -3 -2 -38 7 -78 21 -109 37 -150 33 -175 -16 -21 -40 -21 -358 0 -398
19 -38 59 -55 219 -97 533 -137 1052 -130 1531 22 58 19 89 35 113 60 l32 34
0 168 c0 98 -5 182 -11 201 -21 59 -65 65 -189 25 -45 -14 -83 -24 -85 -22 -2
2 8 22 22 44 20 30 43 49 87 70 50 24 61 34 62 54 1 14 3 30 5 37 2 6 -5 18
-16 27 -24 18 -15 29 38 46 57 18 108 100 106 169 0 17 -5 8 -13 -24 -16 -65
-30 -89 -63 -113 -39 -28 -84 -36 -107 -19 -17 12 -18 18 -8 48 11 31 10 32
-3 15 -22 -28 -18 -61 8 -79 12 -8 19 -18 14 -23 -10 -11 -63 31 -60 48 2 7
-7 18 -19 23 -21 9 -40 47 -52 106 -4 18 -23 38 -56 59 -54 34 -64 62 -30 80
30 16 67 2 104 -42 29 -33 39 -39 67 -36 25 2 35 9 39 27 3 13 16 28 29 33 22
8 23 7 17 -23 -3 -18 -14 -38 -23 -44 -16 -12 -15 -13 7 -8 16 3 38 -4 62 -21
l37 -25 -11 25 c-14 31 3 92 38 134 14 16 21 30 16 30 -17 0 -51 -50 -64 -94
-15 -51 -13 -49 -36 -42 -19 6 -19 10 -7 57 19 73 47 121 85 147 22 15 27 22
16 22 -10 0 -31 -13 -48 -30 -16 -16 -36 -30 -43 -30 -28 0 -45 13 -45 35 0
67 -75 244 -144 340 -20 27 -36 60 -36 72 0 13 -18 37 -45 61 -25 22 -45 46
-45 54 0 21 -46 88 -79 115 -14 12 -42 28 -61 34 -19 7 -50 25 -67 40 -31 27
-144 69 -185 69 -10 0 -27 -4 -36 -9 -12 -6 -35 -3 -72 9 -67 24 -94 25 -114
5z m131 -25 c28 -12 45 -15 49 -8 20 33 225 -27 238 -70 4 -10 15 -18 27 -19
62 -5 176 -115 151 -146 -9 -10 -4 -17 18 -30 15 -10 40 -31 54 -48 21 -24 24
-34 15 -45 -6 -8 -18 -14 -26 -14 -12 0 -12 -3 1 -22 28 -40 21 -58 -24 -58
-33 0 -135 31 -149 46 -3 2 5 12 18 20 l22 16 -45 28 c-47 30 -66 56 -66 89 0
17 -6 21 -30 21 -68 0 -130 47 -130 98 0 21 -1 22 -16 8 -25 -26 -65 -31 -111
-14 -42 15 -43 15 -43 -6 0 -13 3 -17 8 -9 5 8 13 9 22 3 20 -13 87 -13 110 0
16 8 20 5 30 -25 14 -42 52 -65 110 -65 35 0 40 -3 40 -23 0 -31 23 -61 66
-87 l35 -22 -28 -18 c-33 -20 -59 -57 -77 -107 l-12 -35 -18 28 c-10 16 -28
37 -40 47 -57 48 -184 96 -263 99 -24 1 -43 4 -43 7 0 3 13 40 30 81 16 41 29
80 30 85 0 6 -19 19 -41 30 -56 26 -139 106 -139 132 0 23 31 36 66 27 14 -4
23 0 27 10 9 22 81 20 134 -4z m-142 -147 c41 -27 74 -54 74 -61 1 -11 -46
-140 -54 -150 -1 -1 -26 13 -54 32 -86 58 -162 71 -218 36 -46 -27 -57 -53
-39 -88 8 -16 22 -34 30 -41 14 -12 16 -10 16 8 0 12 11 33 25 46 20 21 34 25
82 25 32 -1 72 -7 88 -14 27 -12 24 -13 -42 -8 -100 7 -140 -21 -117 -81 4
-11 11 -8 33 13 38 38 148 55 158 25 2 -6 -13 -29 -32 -50 -19 -22 -44 -59
-55 -82 -18 -39 -23 -43 -58 -43 -41 0 -100 -26 -116 -52 -13 -22 5 -56 47
-86 l32 -23 -30 6 c-16 4 -43 11 -59 16 -60 19 -38 -17 29 -46 27 -12 29 -16
26 -58 -3 -58 16 -87 85 -130 l53 -34 -35 -11 c-84 -25 -270 34 -391 126 -18
13 -37 21 -42 18 -5 -4 -12 3 -16 13 -4 12 -12 18 -21 14 -25 -9 -15 11 24 48
20 20 82 59 138 88 115 58 180 110 200 157 18 44 7 72 -46 114 -52 41 -107 61
-188 68 l-63 5 28 29 c43 46 143 114 218 149 56 27 177 66 209 68 4 1 41 -20
81 -46z m176 -253 c35 -10 86 -33 113 -51 49 -30 49 -31 29 -48 -36 -29 -77
-91 -61 -91 13 0 13 -7 5 -40 -10 -34 -9 -43 6 -57 16 -16 17 -16 17 9 0 40
10 57 41 74 26 13 30 13 49 -6 15 -15 20 -33 20 -69 0 -83 -54 -126 -104 -83
-21 17 -21 17 -2 -5 11 -13 27 -23 37 -23 24 0 49 -38 49 -75 0 -49 -49 -86
-138 -106 -29 -6 -59 -20 -73 -35 -26 -27 -68 -32 -102 -10 -12 8 -58 26 -102
41 -44 14 -98 38 -119 53 -43 30 -71 82 -62 118 5 20 13 24 46 24 44 0 49 -6
23 -26 -16 -12 -16 -13 8 -14 52 0 87 -21 113 -65 29 -48 112 -115 145 -115
14 0 22 8 27 28 15 70 61 142 89 142 8 0 23 -10 35 -22 11 -12 20 -16 20 -9 0
23 -48 61 -77 60 -17 -1 -21 -3 -10 -6 26 -7 21 -19 -17 -37 -49 -23 -119 -19
-219 12 -73 23 -86 30 -74 40 11 10 22 9 50 -3 52 -22 132 -19 184 6 24 11 43
25 43 30 0 6 -7 6 -18 0 -29 -15 -119 -25 -126 -13 -3 5 1 12 9 16 24 9 17 35
-10 42 -14 4 -29 3 -33 0 -3 -4 4 -9 16 -13 12 -3 22 -9 22 -14 0 -31 -163 -7
-235 35 -89 53 -59 106 58 106 57 0 115 -23 163 -63 21 -18 34 -23 45 -16 11
7 11 9 1 9 -8 0 -27 9 -43 20 -28 21 -28 21 -9 40 24 24 34 62 26 95 -7 29
-26 34 -26 6 0 -24 -31 -52 -37 -33 -8 23 -23 1 -23 -33 0 -33 -1 -34 -30 -24
l-29 11 24 48 c36 70 79 110 120 110 24 0 38 -6 45 -20 10 -19 13 -19 33 -5
28 20 91 19 107 -1 18 -20 15 -97 -5 -175 -9 -35 -19 -67 -21 -70 -2 -4 -21
-1 -41 7 -21 7 -47 13 -58 13 -11 0 6 -8 38 -19 32 -10 65 -24 75 -32 15 -11
15 -11 5 2 -9 12 -8 30 6 80 27 98 34 161 19 189 -17 33 -62 44 -105 26 -31
-13 -35 -13 -53 5 -15 15 -27 18 -51 13 -30 -6 -30 -5 -18 16 18 28 83 28 170
1z m-782 -389 c-16 -16 -29 -39 -29 -50 0 -22 -35 -38 -53 -23 -7 5 -43 13
-82 17 l-70 7 95 28 c52 15 106 32 120 38 43 19 49 13 19 -17z m1546 -48 c-9
-39 -17 -45 -69 -50 -36 -4 -51 -2 -66 12 -11 10 -20 22 -20 26 0 18 58 38
109 39 53 0 53 0 46 -27z m-1540 -43 c-21 -23 -103 -62 -115 -55 -19 12 -10
22 40 45 28 13 56 30 62 37 9 11 13 11 19 1 5 -7 2 -19 -6 -28z m688 15 c42 0
77 -3 77 -6 0 -25 -84 -43 -139 -31 -19 4 -41 18 -50 31 -15 23 -15 23 9 15
14 -5 60 -9 103 -9z m-793 -15 c0 -5 -9 -14 -19 -19 -15 -8 -18 -20 -17 -53 2
-37 9 -48 58 -92 31 -28 96 -75 145 -105 160 -99 284 -183 290 -196 2 -8 -11
-49 -29 -92 -39 -90 -25 -86 -183 -51 -114 25 -130 37 -195 147 -63 107 -102
237 -108 364 l-5 107 32 0 c17 0 31 -4 31 -10z m206 -29 c71 -47 167 -87 254
-105 63 -13 65 -14 62 -42 l-2 -29 16 30 c20 36 32 45 62 45 16 0 22 -6 23
-22 1 -18 3 -16 8 7 6 25 11 30 35 28 34 -3 32 0 39 -45 5 -33 2 -39 -29 -63
-40 -30 -43 -29 -55 17 -8 29 -8 27 -4 -13 3 -38 0 -50 -16 -65 -30 -27 -58
-87 -66 -139 -8 -59 4 -58 73 7 30 28 56 49 58 47 2 -2 15 -26 30 -54 29 -54
25 -23 -4 35 -18 35 -18 36 7 64 13 15 26 26 29 23 10 -10 6 -156 -6 -261
l-13 -109 -101 8 c-133 9 -191 19 -189 30 1 6 18 47 38 92 21 47 38 104 40
135 2 29 2 44 -2 33 -20 -70 -16 -69 -85 -21 -35 23 -123 78 -196 122 -132 78
-237 163 -230 186 2 6 21 17 41 24 20 7 56 27 80 43 23 17 43 30 43 31 1 0 28
-18 60 -39z m758 -101 c25 -10 46 -22 46 -26 0 -12 -76 -106 -119 -148 l-40
-39 -11 27 c-16 42 -13 48 40 115 28 34 50 67 50 72 0 5 -21 -16 -46 -48 -66
-81 -64 -80 -73 -64 -6 9 9 31 48 72 31 32 57 58 58 59 1 0 22 -9 47 -20z
m-214 -15 c7 -8 30 -18 51 -21 l39 -6 -26 -20 c-20 -17 -31 -19 -57 -11 -26 7
-33 14 -35 41 -3 34 8 41 28 17z m312 -21 c3 -3 2 -21 -4 -41 -5 -19 -7 -37
-4 -41 3 -3 9 9 12 27 11 53 23 51 117 -20 83 -63 165 -82 247 -59 32 9 36 8
62 -25 16 -19 47 -44 68 -56 22 -13 40 -26 40 -31 0 -12 -107 -57 -175 -73
-38 -10 -117 -15 -217 -15 l-157 0 -6 58 c-10 90 -14 94 -11 9 3 -67 8 -88 39
-146 l35 -69 -41 -6 c-23 -3 -111 -9 -194 -13 -175 -7 -161 -17 -142 97 11 69
15 98 17 143 2 33 22 36 22 3 0 -14 -4 -28 -10 -31 -5 -3 -10 -12 -10 -18 0
-7 7 -4 14 6 13 16 15 16 31 -9 22 -34 66 -73 83 -74 17 0 15 48 -4 125 l-16
65 66 71 c37 40 74 85 84 101 15 26 40 36 54 22z m-333 -96 c-30 -43 -170
-188 -181 -188 -14 0 2 71 26 114 12 23 49 60 86 87 55 41 67 46 79 34 12 -11
10 -18 -10 -47z m89 -22 c31 -77 64 -210 60 -238 -3 -21 -5 -20 -40 15 -43 43
-63 103 -74 216 -6 68 -6 73 12 69 12 -2 27 -24 42 -62z m-64 -33 c4 -31 3
-53 -3 -53 -10 0 -20 77 -13 98 7 19 9 13 16 -45z m848 -35 c14 -5 2 -28 -16
-28 -19 0 -107 80 -101 91 3 5 28 -7 55 -25 27 -19 55 -36 62 -38z m-1586
-213 c299 -95 555 -133 834 -122 237 10 475 52 680 122 40 14 90 25 111 25 64
0 69 -17 69 -218 0 -100 -4 -181 -10 -193 -14 -25 -56 -46 -154 -75 -464 -141
-940 -147 -1465 -18 -154 38 -214 62 -231 93 -6 12 -10 93 -10 193 0 238 8
246 176 193z"/>
<path d="M1310 1576 c0 -27 -31 -59 -37 -38 -8 21 -20 13 -26 -15 -13 -67 33
-96 72 -46 28 35 36 69 22 99 -14 31 -31 31 -31 0z"/>
<path d="M1514 1448 c-15 -18 -16 -20 -2 -9 15 11 19 11 24 -4 4 -9 1 -28 -5
-43 -11 -25 -10 -26 4 -8 8 11 15 30 15 43 0 14 6 23 16 23 8 0 12 5 9 10 -11
17 -41 11 -61 -12z"/>
<path d="M1142 653 c-13 -25 -4 -43 19 -43 16 0 20 6 17 27 -4 32 -23 41 -36
16z"/>
<path d="M1250 654 c-10 -11 -11 -20 -3 -32 17 -27 38 -20 38 12 0 34 -16 44
-35 20z"/>
<path d="M410 468 l0 -173 60 -17 c32 -10 64 -18 70 -18 5 0 10 21 10 46 0 39
3 45 17 40 9 -4 36 -10 60 -13 38 -5 45 -2 74 26 28 28 31 37 26 73 -6 44 -28
81 -68 110 -19 14 -229 98 -246 98 -2 0 -3 -78 -3 -172z m175 12 c21 -23 13
-50 -15 -50 -16 0 -20 6 -20 35 0 40 9 44 35 15z"/>
<path d="M1913 567 l-72 -20 -71 -180 c-39 -99 -68 -182 -66 -184 3 -3 33 -1
68 4 58 7 64 10 77 41 12 26 24 35 65 47 65 19 73 19 81 -5 3 -11 10 -20 15
-20 18 0 130 53 130 61 0 19 -135 279 -145 278 -5 -1 -42 -11 -82 -22z m26
-147 c7 -22 10 -44 7 -49 -8 -12 -56 -20 -56 -10 0 19 25 99 30 99 4 0 12 -18
19 -40z"/>
<path d="M776 413 c-4 -70 -8 -148 -9 -172 l-2 -45 64 -13 c35 -7 66 -11 69
-9 4 5 21 239 22 307 0 35 -1 36 -45 42 -25 4 -56 9 -69 13 l-24 6 -6 -129z"/>
<path d="M1526 500 l-150 -15 -12 -49 -13 -48 60 4 c32 2 59 2 59 -1 0 -2 -29
-58 -65 -124 -36 -66 -64 -122 -61 -125 6 -5 280 16 306 24 13 3 46 92 38 99
-2 2 -32 -1 -67 -6 -35 -5 -66 -7 -68 -5 -3 2 25 62 61 132 35 71 64 129 63
129 -1 0 -69 -6 -151 -15z"/>
<path d="M1000 467 c-20 -60 -16 -67 45 -67 30 0 55 -4 55 -8 0 -4 -29 -57
-65 -117 -35 -61 -61 -113 -57 -117 4 -4 77 -10 163 -14 l156 -7 11 46 c7 25
12 48 12 51 0 3 -31 6 -70 6 -38 0 -70 3 -70 6 0 3 29 58 65 121 36 64 64 117
63 118 -2 1 -69 5 -150 7 l-147 5 -11 -30z"/>
<path d="M320 1700 c-25 -5 -60 -12 -78 -16 -18 -3 -35 -10 -38 -15 -3 -5 -15
-9 -27 -9 -13 0 -33 -7 -45 -16 -12 -8 -26 -13 -31 -10 -11 7 -101 -30 -101
-41 0 -5 7 -18 15 -30 14 -20 14 -23 -1 -31 -11 -6 -14 -18 -11 -38 4 -27 5
-27 12 -7 4 12 14 22 23 22 10 1 33 3 52 6 42 7 66 -6 56 -30 -5 -14 -14 -16
-47 -11 -35 6 -41 4 -46 -14 -6 -23 -23 -26 -41 -8 -9 9 -12 3 -12 -30 l0 -42
161 0 c136 0 166 3 202 19 23 11 60 22 82 26 76 13 199 56 277 97 59 31 86 52
109 85 25 35 28 47 19 58 -7 8 -20 15 -29 15 -9 0 -22 5 -28 11 -14 14 -409
21 -473 9z m217 -12 c5 14 73 17 73 3 0 -5 -9 -11 -21 -14 -15 -4 -19 -11 -14
-25 3 -11 2 -23 -4 -26 -15 -10 -43 5 -37 21 3 7 -10 2 -30 -13 -29 -23 -37
-25 -45 -13 -6 10 -9 11 -9 1 0 -7 7 -15 15 -18 26 -10 16 -22 -22 -27 -21 -2
-41 -3 -45 -1 -12 7 52 66 66 61 18 -7 55 33 49 53 -4 13 -3 13 7 0 9 -11 13
-12 17 -2z m-107 -7 c0 -14 -24 -17 -94 -12 -47 3 -55 6 -36 12 36 10 130 11
130 0z m354 -3 c57 -16 60 -20 36 -61 -23 -38 -50 -56 -50 -32 0 8 -5 15 -11
15 -8 0 -8 4 0 13 8 10 7 17 -1 25 -9 9 -8 12 4 12 23 0 32 -18 18 -35 -7 -9
-8 -15 -2 -15 9 0 22 22 22 39 0 12 -48 31 -75 31 -14 0 -25 5 -25 10 0 13 33
13 84 -2z m-493 -28 c28 -23 20 -24 -39 -7 -23 7 -40 16 -36 20 14 13 52 7 75
-13z m343 -5 c14 -13 26 -31 26 -40 0 -21 -1 -20 -45 25 -43 44 -27 58 19 15z
m-250 -15 l14 -30 -30 0 c-17 0 -40 -7 -50 -17 -26 -24 -100 -21 -127 6 l-21
21 30 15 c27 14 34 14 66 0 41 -17 58 -12 51 16 -4 15 0 19 23 19 22 0 32 -7
44 -30z m336 21 c-19 -5 -25 -14 -25 -35 -1 -17 -8 -32 -20 -39 -18 -9 -18 -9
-7 6 10 11 11 21 3 34 -8 14 -5 21 12 30 12 7 31 12 42 12 16 -1 15 -2 -5 -8z
m-554 -35 c-39 -37 -48 -76 -18 -76 10 0 24 6 31 13 11 10 12 8 7 -10 -5 -16
-1 -27 13 -40 26 -22 27 -45 3 -60 -16 -9 -18 -8 -18 11 1 12 -4 20 -11 19 -8
-2 -13 7 -13 21 0 18 -8 27 -31 35 -24 8 -30 15 -25 28 3 10 -3 6 -15 -9 -11
-16 -30 -28 -42 -28 -19 0 -15 6 23 41 29 27 38 40 26 37 -10 -1 -21 3 -23 10
-3 7 5 12 20 12 14 0 38 7 53 15 49 25 58 17 20 -19z m468 -22 c18 -26 18 -26
-2 -15 -21 11 -52 5 -63 -12 -4 -5 -9 -5 -13 2 -4 6 -2 11 3 11 6 0 11 9 11
19 0 38 34 35 64 -5z m-79 -45 c5 -6 3 -9 -6 -9 -9 0 -28 -13 -42 -30 -15 -16
-35 -30 -45 -30 -9 0 -27 -3 -39 -6 -18 -5 -21 -3 -16 15 3 11 2 28 -1 38 -6
14 -12 12 -40 -16 -28 -27 -34 -30 -40 -16 -8 21 2 38 19 31 8 -3 24 3 37 14
13 10 37 20 53 23 38 6 107 -2 120 -14z m144 -2 c11 -14 6 -18 -76 -53 -29
-13 -33 -12 -33 1 0 8 7 15 15 15 8 0 22 11 32 25 20 27 45 32 62 12z m-381
-9 c-7 -19 -45 -21 -51 -4 -5 12 1 16 24 16 20 0 29 -4 27 -12z m54 -71 c-26
-26 -33 -28 -46 -17 -9 7 -16 8 -16 2 0 -18 33 -23 56 -7 13 8 36 15 51 15 16
0 44 4 63 10 20 6 38 6 43 1 11 -11 -8 -17 -91 -30 -34 -5 -72 -17 -84 -25
-32 -23 -86 -21 -84 2 1 17 37 44 65 48 8 2 26 14 40 29 15 14 27 21 30 14 2
-6 -10 -25 -27 -42z m-203 -28 c-20 -13 -102 -6 -106 8 -3 8 14 13 54 15 58 3
78 -6 52 -23z m16 -26 c3 -10 -16 -13 -75 -13 -44 0 -80 4 -80 9 0 20 147 23
155 4z"/>
</g>
</svg>
